<?xml version="1.0" encoding="utf-8"?>
<!-- Generator: Adobe Illustrator 25.2.2, SVG Export Plug-In . SVG Version: 6.00 Build 0)  -->
<svg version="1.1" id="Layer_1" xmlns="http://www.w3.org/2000/svg" xmlns:xlink="http://www.w3.org/1999/xlink" x="0px" y="0px"
	 viewBox="0 0 950 693" style="enable-background:new 0 0 950 693;" xml:space="preserve">
<path d="M933.1,320.5c-9.9-0.7-19.4-2.9-28.2-7.7c-5.1-2.8-10-6.1-14.2-10.1c-4.8-4.6-9.9-9-14.2-14.1c-7.1-8.4-13.4-17.5-19.1-26.9
	c-2.2-3.7-5-7.1-7.4-10.7c-4.4-6.6-8.6-13.3-13.2-19.8c-4.9-6.9-10-13.7-15-20.5c-1.1-1.4-2.2-2.8-3.4-4.2c-2.8-3.1-5.5-6.4-8.6-9.3
	c-6.6-6.3-13-12.8-20.1-18.4c-9.9-7.9-19.6-16.2-30.4-23c-12.4-7.8-25.4-14.3-39-19.9c-1.7-0.7-3.3-1.4-4.9-2.2
	c-0.8-0.4-1.5-1.2-2.3-1.8c0.1-0.2,0.2-0.5,0.2-0.7c2.1-0.3,4.3-0.7,6.4-0.7c9.1-0.4,18.1-1.5,26.8-4.3c2.3-0.7,4.8-1,7.2-1
	c3.9-0.1,7.9-0.1,11.7,0.5c7.4,1.2,14.4,4,21.3,7.1c1.8,0.8,3.7,1.7,5.6,2c3.7,0.7,6.2-1.4,6.5-5.1c0.2-2.9-0.3-5.6-2.6-7.5
	c-2.7-2.2-5.6-4.1-8.5-6c-1.6-1-3.4-1.7-5.1-2.6c-2.4-1.4-2.5-2.7-0.3-4.3c1.9-1.5,4-2.7,6.1-4.1c3.2-2.1,6.4-4.2,9.4-6.4
	c2.9-2.1,5.9-2.8,9.2-1.4c6.7,2.9,13.8,3.8,21,4.6c6,0.7,11.9,1.8,17.8,2.7c1.6,0.2,3.2,0.5,4.7,0.4c3.9-0.3,5.9-4.2,4.1-7.7
	c-1.2-2.2-3-3.6-5.3-4.3c-3.9-1-7.8-2-11.7-2.6c-4.5-0.7-9-0.9-13.5-1.5c-2.5-0.3-5-0.9-7.4-1.6c-3.7-1.2-4.5-3.1-2.6-6.5
	c1.1-2,2.5-4,3.5-6c3.6-6.7,4.8-13.8,1.7-21c-2-4.7-4.7-8.9-10.2-10c-1.9-0.4-4.1-0.5-5.9,0c-7.2,1.8-11.9,6.2-13.5,13.6
	c-1.4,6.5-1.4,13,1.4,19.3c0.3,0.8,0.6,1.6,0.9,2.4c1.6,4.4,0.9,7.1-2.8,10.1c-6.9,5.6-14.7,10-22.4,14.5
	c-10.5,6.1-21.6,10.7-33.5,13.1c-2.1,0.4-4.4,0.4-6.5,0.5c-0.5,0-0.9-0.4-1.8-0.8c0.3-1.3,0.5-2.7,1-3.9c0.7-1.9,1.7-3.6,2.5-5.5
	c0.5-1.2,0.9-2.4,1.1-3.6c0.4-2.5,0-4.9-2.3-6.5c-2.3-1.7-4.8-1.6-7.2-0.3c-1.4,0.8-2.8,1.9-3.8,3.3c-5.6,7.6-13.4,11.9-21.9,15
	c-3,1.1-6.1,1.1-9.1,0.5c-4.6-0.8-9.2-1.3-13.9-1.1c-2,0.1-4,0-6-1.6c0.7-1.1,1.2-2.2,2.1-3c7.5-7.3,15.4-14.3,24.6-19.5
	c4.2-2.4,8.9-3.8,13.4-5.7c4.4-1.8,8.8-3.5,13.1-5.6c5.1-2.5,6.4-5.8,5.1-11.2c-1.6-6.5-7.1-12.4-15.5-12.8
	c-2.9-0.2-5.9,0.7-8.7,1.4c-8.7,2.3-16.9,6.1-24.9,10.4c-1.1,0.6-2.2,1.2-3.4,1.6c-1.8,0.6-2.7,0-2.6-1.9c0.1-2.5,0.5-5,0.9-7.5
	c1.1-6.3-0.8-11.7-5.2-16.3C653,31,638.9,24.3,623,21.3c-6.8-1.3-13.7-2.3-20.7-3.1c-3.8-0.5-7.6-0.6-11.4-0.7
	c-7.7-0.1-15.5-0.3-23.2,0.1c-4.2,0.2-8.3,1.3-12.4,2.4c-7.6,2.1-15.1,4.8-22.3,8.2c-7.2,3.5-13.4,8.4-19.2,13.9
	c-2.9,2.8-5.9,5.5-9.4,7.5c-2.9,1.6-5.3,3.9-7.2,6.6c-1.1,1.7-2.3,3.3-3.5,4.9c-1.9,2.6-3.2,5.4-3.9,8.6c-1,4.8-2.3,9.5-3,14.3
	c-0.6,4.8-0.6,9.7,0.4,14.5c0.5,2.2,1.3,4.3,3.1,5.8c2,1.7,4.2,1.5,5.8-0.5c0.6-0.8,1.2-1.7,1.6-2.7c1.2-2.9,3.3-4.9,5.9-6.4
	c4.3-2.5,8.6-5.1,13-7.2c2.7-1.3,5.8-1.9,8.7-2.8c2-0.6,4.1-1.1,6-2c3.1-1.4,4.4-1.3,6.6,1.3c1.7,1.9,3.2,3.9,4.9,5.8
	c5.5,6.1,12.6,10.3,19.5,14.7c3.9,2.5,8.1,4.6,12.6,5.9c1,0.3,2,0.7,2.9,1.3c2.1,1.4,2,3.7-0.3,4.6c-1.2,0.5-2.7,0.7-4,0.7
	c-3.6,0-7.2-0.3-10.8-0.4c-12.4,0-24.4,2.4-35.7,7.6c-7.5,3.4-14.8,7.3-21.5,12.3c-4,3-7.7,6.2-11.6,9.3c-0.8,0.7-1.7,1.3-2.7,1.7
	c-1.7,0.8-2.9,0.2-3.4-1.6c-0.3-1.3-0.6-2.7-0.7-4.1c-0.4-3.4-1.7-6.5-3.4-9.5c-0.6-1-1.3-1.9-2.1-2.8c-4.1-4.2-10-2.8-11.7,2.8
	c-0.6,2-0.9,4.1-1.4,6.2c-1.7,7-3.4,14.1-7.3,20.2c-5.4,8.3-12.5,14.7-22.1,18.3c-8,3-16.1,4.4-24.5,4.1c-4-0.1-8-0.7-11.9-1.4
	c-6.5-1.2-13-2.7-19.6-4.1c-1-0.2-2.1-0.4-3.1-0.8c-2.2-0.7-3.6-2.2-3.9-4.6c-0.4-3.6-0.5-7.2-1.2-10.7c-1.2-5.8-2.7-11.5-4.2-17.3
	c-0.7-2.8-1.5-5.5-2.5-8.2c-2-5.7-4.1-11.3-6.4-16.9c-1.8-4.6-3.8-9.2-5.9-13.7c-1.9-3.9-1.5-7.5,0.9-11.1c3.5-5,6.9-10.2,10.4-15.2
	c1.9-2.7,3.2-3,6.1-1.1c2.9,1.8,5.8,3.5,9.2,4.1c1.6,0.3,3.4,0.5,5,0.3c3.9-0.4,6.2-3.6,4-7.5c-2.2-4.1-4.3-8.2-6.4-12.4
	c-0.9-1.8-1.6-3.7-2.1-5.6c-1.3-5-0.8-10.1-0.3-15.1c0.5-4.9,0.5-9.8-0.5-14.5c-1.1-5.3-3.9-9.9-8.2-13.2c-3.2-2.5-6.8-4.6-10.4-6.7
	c-1.6-0.9-3.5-1.2-5.3-1.7h-7c-0.7,0.2-1.3,0.6-2,0.7c-7,1.6-13.1,4.9-18.2,9.9C322.2,23,315,33,310,44.6c-3.5,8.4-4.6,17-3.6,25.8
	c0.8,7.3,2.7,14.5,4.5,21.7c1.8,7.5,3.9,14.9,6,22.4c1.1,3.9,0.2,6.9-2.6,9.8c-6.4,6.6-12.7,13.3-19.1,20
	c-9.1,9.5-18.9,18.2-29.3,26.3c-2.8,2.2-5.5,4.6-8.5,6.7c-6.6,4.6-13.3,9.1-20.1,13.4c-9,5.7-17.4,12.1-25.3,19.1
	c-7.1,6.3-15,10.5-24.3,12.4c-5.4,1.1-10.8,2.4-16,3.9c-15.5,4.4-31.3,6.2-47.3,6.1c-7.3-0.1-7.7-1.4-9.7-6.6
	c-1.8-4.6-5-7.8-9.7-9.4c-6.6-2.2-13.2-1.5-19.1,1.8c-7.8,4.3-8.5,13.7-1,19c1.9,1.3,4.2,2,6.3,2.9c0.9,0.4,1.8,0.5,2.7,1
	c1.6,0.9,1.8,2,0.4,3.3c-0.5,0.5-1.2,0.9-1.8,1.2c-3.7,2.1-7.8,3.4-11.9,4.2c-4,0.7-8.2,1.1-12.2,1.9c-2.3,0.5-4.8,1.1-6.8,2.4
	c-3.5,2.3-3,6.3,0.9,7.8c2,0.8,4.3,1.2,6.5,1c4.8-0.3,9.7-0.8,14.4-1.8c6.5-1.3,13-3,18.8-6.5c3.4-2,6.1-4.9,8.7-7.8
	c2-2.2,4.5-2.7,7.5-2.4c4.4,0.4,8.9,0.8,13.3,0.7c6.1-0.3,12.2-1,18.3-1.8c5.5-0.7,11.1-1.6,16.5-2.8c7.7-1.7,15.4-3.8,23.1-5.6
	c1.3-0.3,2.7-0.5,4.1-0.4c1.7,0.1,2.4,1.1,1.9,2.8c-0.4,1.3-1.1,2.5-1.6,3.8c-1,2.5-2.2,5-3,7.6c-1.3,4-0.9,8.1-0.8,12.2
	c0.2,13.9,4.6,26.3,12.3,37.8c3.4,5.1,7.8,9.2,12.6,12.9c5.8,4.4,11.6,9,17.8,12.8c5.2,3.2,11.2,5,17.3,6.1c7,1.3,14.1,0.8,21.2,0.6
	c4-0.1,8-0.5,12-1c8-1.1,15.3-4.3,22.3-7.9c15.8-8.1,28.5-19.8,37.9-34.9c8.9-14.3,16.7-29.2,22.9-44.9c4.4-11.3,6.8-23.1,7.7-35.2
	c0.3-4.4,0.5-8.9,0.9-13.3c0.3-3.5,2-5,5.5-4.7c2.2,0.1,4.4,0.6,6.6,1.1c11.3,2.5,22.6,5,34.2,4.1c3.1-0.2,6.3-0.5,9.4-1.2
	c15.5-3.6,29.9-9.8,43.8-17.5c3.4-1.9,6.8-4,9.9-6.4c7.2-5.5,14.3-11.2,21.4-16.9c8.5-6.9,17.9-12.4,27.8-17.1
	c5.5-2.7,11.5-3.4,17.5-4.5c4.2-0.7,8.6-0.6,13-0.8c1.1,0,2.3,0.2,3.4,0.6c1.7,0.6,2.1,1.5,1.3,3.1c-0.3,0.6-0.7,1.1-1,1.6
	c-1.9,2.5-3.7,5.2-5.8,7.5c-1.2,1.4-2.8,2.5-4.4,3.5c-1.3,0.8-3,1.1-4.5,1.6c-6.5,2.2-12.1,5.9-17,10.9c-3.1,3.2-6.1,6.4-9.1,9.7
	c-3.2,3.5-6.6,6.9-9.4,10.7c-5.7,7.7-12.5,14.3-19.6,20.8c-2.6,2.4-5.7,3.7-9.2,3.7c-10.4-0.1-20.4,2.4-30.2,5.1
	c-10.4,2.9-20.5,6.8-31.3,8.1c-8.6,1.1-17.1,2.8-25.9,2.1c-1.6-0.1-3.2-0.1-4.7,0.3c-4.6,1.1-6.7,5.1-3.4,9c0.4,0.5,0.8,1,1.2,1.5
	c3.9,4,8.1,7.7,13.2,10.3c3.3,1.7,3.7,2.8,2.2,6.1c-6.5,14.2-7.1,29.3-5.9,44.5c0.3,3.8-0.7,6.3-3.4,8.5c-4.3,3.4-8.6,6.8-12.9,10.3
	c-2.6,2-5,4.2-7.7,6.1c-7.1,5.1-13.5,11-18.7,17.9c-6.7,8.8-10.8,18.9-14,29.4c-1.5,4.9-2.2,10.1-3.3,15.2c-0.6,2.6-1.9,4.6-4.3,5.9
	c-3.9,2.2-7.6,4.6-11.5,6.8c-10,5.5-20,11-30.1,16.4c-11.3,6-22.9,11.4-35.3,14.8c-1.7,0.5-3.4,1.2-5,2
	c-11.1,5.6-22.5,10.4-34.3,14.3c-10.7,3.5-20.7,8.7-30.5,14.1c-5,2.7-10,5.6-15.2,7.9c-16.4,6.9-32.5,14.4-47.9,23.5
	c-14.4,8.5-29,16.8-42.4,26.8c-15.9,11.9-30.6,25.2-44.7,39c-5.4,5.3-10.6,10.9-15.7,16.6c-9.9,11-17,23.7-21.7,37.7
	c-0.4,1.1-0.9,2.1-1.3,3.1v5.7c0.3,0.3,0.6,0.6,0.8,0.9c1.7,4.3,5.5,5.1,10.1,3.7c2.2-0.7,4.3-1.8,6.3-3c8-4.9,16.8-7.2,25.8-9.3
	c12.3-2.9,24.8-4.4,37.1-6.9c10.1-2,20-4.3,30.1-6.3c8.4-1.6,16.9-3,25.3-4.5c7.1-1.2,14.1-2.6,21.2-3.8c7.5-1.2,15-2.3,22.6-3.3
	c9.5-1.3,19.1-2.4,28.6-3.8c3.2-0.4,6.4-1.4,9.6-1.9c13.6-2.2,27.1-4.2,40.7-6.6c7.9-1.4,15.7-3.2,23.5-5.3
	c10.9-2.9,21.8-6.1,32.6-9.3c11.9-3.5,23.4-7.9,34.5-13.5c8.7-4.4,17.5-8.6,26.3-12.7c4.1-1.9,8.6-3.1,12.6-5.2
	c3.8-1.9,7.6-4.2,11-6.9c4.6-3.5,9.5-6.3,14.6-9c9.6-5.2,18.7-11.3,26.9-18.5c5.8-5.1,11-10.8,16.5-16.2c3.4-3.4,6.6-6.9,10-10.3
	c4.5-4.5,8.9-9,13.5-13.5c12.4-12.2,23.8-25.3,34.7-38.8c0.1-0.1,0.1-0.2,0.2-0.2c5.8-7.1,5.8-6.8,15.2-6.6c6.7,0.2,13.3,0.7,20,0.5
	c6-0.2,12-0.9,17.9-1.9c14.5-2.5,28.9-5.2,43.3-8.1c9.7-2,18.7-5.8,27.5-10.3c7.9-4.1,15.5-8.8,22.9-13.6c1.9-1.2,3.9-2.4,6.9-2.3
	c-0.6,1.6-0.9,2.9-1.5,4.1c-2.1,4.1-4.4,8.2-6.5,12.4c-3.3,6.4-6.4,12.9-9.7,19.3c-2,4.1-4.1,8.1-6.2,12.2
	c-5.3,9.9-10.8,19.7-15.9,29.6c-2.9,5.6-5,11.7-7.6,17.4c-1.1,2.5-2.6,4.8-4.1,7.2c-1.9,2.9-4.6,4.9-7.7,6.4
	c-7.1,3.4-14.1,6.7-21.2,10.1c-16.3,7.9-32,16.9-47,27c-5.9,4-11.7,8.1-17.5,12.1c-0.9,0.6-1.8,1.2-2.7,1.6c-2.1,1-3,0.5-3.1-1.7
	c-0.1-0.9,0-1.9,0-2.9c0.2-3.1,0.5-6.1,0.6-9.2c0.2-5.9,0.5-11.8,0.6-17.8c0-2.4-0.2-4.9-0.6-7.2c-0.4-2.4-1.9-4.3-4.5-4.7
	c-2.7-0.4-4.9,0.9-6.1,3.2c-1.2,2.2-2,4.6-2.8,7c-3.2,9.4-6.3,18.9-9.6,28.2c-2.3,6.6-5.7,12.7-9.8,18.5
	c-6.8,9.6-13.6,19.2-20.4,28.7c-3.3,4.6-7.3,8.6-11.6,12.1c-6.7,5.4-12.3,11.9-17.7,18.5c-4.3,5.3-8.7,10.7-12.5,16.4
	c-5.9,9-10.3,18.8-10,29.9c0.1,3.8-0.1,7.7,0.7,11.4c0.8,3.7,1.9,7.2,3.4,10.4s3.5,6.1,5.9,8.6l0,0c1.9,1.9,4,3.6,6.5,5
	c10.2,7.5,28.3,16.7,62-0.2c0,0,0,0,0.1,0c1.5-0.7,3.1-1.5,4.5-2.3c21.4-11.3,35.9-23.3,45.2-32.5c3.2-2.7,6-5.6,8.5-9
	c6.6-8.9,13.3-17.8,20-26.7c5.9-7.8,12.2-15.4,17.9-23.4c7.3-10.2,14.1-20.9,20.1-32c6.1-11.6,12.5-23.1,18.6-34.7
	c5.1-9.7,10.1-19.6,15.2-29.3c2.1-4.1,4.5-8.2,6.6-12.3c1.8-3.4,4.6-5.5,8.1-6.7c2.4-0.8,4.8-1.8,7.2-2.6c8.6-3,17.2-5.8,25.8-8.9
	c5.9-2.1,11.6-4.5,17.5-6.7c5.3-2,10.8-3.2,16.5-2.8c4.2,0.3,8.4,0.9,12.5,1.9c8.9,2.1,18.1,3.6,26.5,7.5c0.8,0.4,1.8,0.6,2.8,0.7
	c2.6,0.3,5.2,0,6.8-2.4c1.5-2.3,1-4.7-0.4-6.9c-2-3.2-4.2-6.3-6.4-9.5c-1.1-1.6-2.4-2.9-3.5-4.5c-1-1.6-0.7-2.4,0.9-3.3
	c0.6-0.3,1.4-0.6,2.1-0.8c3.1-0.8,6.1-1.6,9.2-2.3c7.3-1.7,14.6-3.4,21.9-5.1c4.3-1,8.7-1.8,13-2.8c1.7-0.4,3.4-1.2,4.9-2.2
	c2.4-1.7,3-4.6,1.7-7c-1-1.8-2.6-2.7-4.5-3.3c-2.8-0.9-5.6-0.5-8.4,0.1c-9.4,2-18.8,4.1-28.2,6.2c-14.7,3.3-29.1,7.2-43.1,12.9
	c-11.1,4.5-22.4,8.4-33.6,12.5c-9.8,3.6-19.7,7.1-29.5,10.7c-1.2,0.4-2.4,0.7-3.7,0.9c-2,0.3-2.7-0.5-2.4-2.5
	c0.2-0.9,0.5-1.8,0.9-2.7c0.9-2.1,1.9-4.2,2.9-6.4c3.4-7.3,6.8-14.6,10.4-21.8c4.5-9.2,9.3-18.3,13.7-27.6
	c4.1-8.7,7.6-17.7,11.6-26.4c2.9-6.3,4.7-12.9,5.7-19.7c0.7-5-0.7-8.8-5.1-11.3c-2.7-1.6-5.5-3.1-8.3-4.6
	c-4.8-2.5-10.3-1.5-13.3,4.4c-0.9,1.8-2.4,3.5-3.8,5c-2.9,2.9-6,5.6-9.1,8.4c-1.9,1.7-3.9,3.2-6,4.7c-3.7,2.5-7.4,4.9-11.1,7.4
	c-8.6,5.7-17.6,10.6-27.1,14.5c-1.2,0.5-2.4,0.9-4-0.3c0.3-1.2,0.6-2.6,1-4c0.9-2.8,2.2-5.6,2.6-8.4c0.7-4,0.9-8.2,1-12.3
	c0.1-2.2-0.8-4.2-3.1-5.1c-2.4-1-4.4,0.1-6,1.7c-1,0.9-1.7,2.2-2.3,3.4c-5.1,9.4-11.9,17.5-20,24.5c-4.7,4-9.4,7.9-15.5,9.7
	c-7.9,2.4-15.7,5.2-24,5.6c-5.5,0.3-11,0.3-16.5,0.2c-3.6-0.1-4.4-2-2.4-5c0.2-0.3,0.4-0.5,0.6-0.8c7-8.8,12.6-18.5,17.5-28.7
	c3-6.1,6.3-12,9.3-18.1c5.5-11.2,11.5-22.2,18.5-32.6c4.3-6.4,8-13.2,12.7-19.4c6.2-8.3,11.8-17.1,16.9-26.1
	c4-6.9,7.6-13.9,11.3-20.9c1.7-3.2,3.1-6.5,4.6-9.8s4-5.3,7.4-6.6c2.4-0.9,4.7-2,6.8-3.3c6.5-4.2,11.8-9.6,15-16.9
	c0.6-1.3,1.3-2.7,2.2-3.9c1.4-1.9,2.4-1.8,3.6,0.1c0.5,0.8,0.8,1.7,1.2,2.6c1.1,2.3,2.1,4.7,3.4,6.8c4.8,8,9.6,16,14.5,23.9
	c1.4,2.3,2.9,4.7,4.5,6.9c5.2,7,10.2,14.1,15.7,20.8c5,6,10.3,11.8,16,17.2c11.2,10.5,24.5,17.8,38.2,24.2c8.6,4,17.7,7,26.6,10.3
	c7.1,2.6,14.4,5,21.6,7.4c14.7,4.9,30,6.9,45.3,8.9c8.1,1,16.1,2,24.2,3c6.3,0.8,12.5,1.7,18.9,1.6c4-0.1,8.1,0.4,11.9,1.3
	c9.3,2.2,18.7,3.5,28.1,5c4.6,0.7,7.8-0.8,10-4.6v-5.1C942.7,322.8,938.4,320.9,933.1,320.5z M802.6,59.8c0.3-0.7,1.4-1.3,2.2-1.4
	c0.6,0,1.4,0.8,1.8,1.4c1.6,2.9,0.6,7-2.2,9.2c-0.6-0.5-1.4-0.9-1.7-1.5C801.5,64.9,801.4,62.3,802.6,59.8z M292.1,164.8
	c6.2-6.1,12.4-12,18.6-18.1c2.9-2.8,5.7-5.7,8.5-8.5c0.1-0.1,0.3-0.3,0.5-0.4c2.4-2.1,4.2-1.8,5.4,1.2c1.2,2.9,2.2,5.9,3.1,9
	c1.5,5.2,2.8,10.4,4.2,15.6c0.2,0.8,0.4,1.6,0.5,2.5c0.1,2.3-0.8,3.4-3.1,3.5c-2.5,0.1-5-0.2-7.6-0.2c-3.6,0-7.2,0-10.7,0.4
	c-5.5,0.6-11.1,1.4-16.6,2.2c-1.8,0.2-3.5,0.6-5.3,0.7c-1,0.1-2-0.3-3.4-0.6C287.5,168.6,290,166.9,292.1,164.8z M335.3,198.2
	c-0.5,5-1,10.1-1.8,15.1c-1.7,10.4-4.7,20.4-8.9,30c-3.2,7.4-6.8,14.6-10.7,21.6c-6.7,12.1-16.6,20.7-28.3,27.5
	c-6.2,3.6-12.5,6.6-19.2,9c-5,1.8-10.1,1.8-15.3,1.4c-8.4-0.7-16.4-2.8-24.6-4.8c-5.2-1.3-9.2-3.9-12.2-8.4
	c-6.4-9.5-9.8-19.9-9.9-31.3c-0.1-9,3.2-17,7.5-24.6c4.5-8.1,10.6-14.7,18.3-20c6.6-4.6,13.1-9.4,19.8-13.9
	c8.6-5.8,18.1-9.5,28.2-11.8c10.4-2.3,21-3.9,31.6-5.2c6.9-0.8,13.7-0.3,20.6,0.1c4.5,0.3,5.9,1.8,5.8,6.2
	C336,192.3,335.6,195.2,335.3,198.2z M343.9,78.4c-2.4-6.9-6.1-13.3-6.9-20.7c-1.2-10.8,0.7-20.9,7.2-29.8c3.2-4.3,7.5-7.1,13-7.7
	c4.3-0.4,7.6,1.1,10,4.8c2.2,3.3,3.1,6.9,2.6,10.9c-0.4,8.7-2.1,17.2-7,24.7c-3.9,6.2-7.8,12.3-11.7,18.5
	C348.1,83.9,345.2,82.1,343.9,78.4z M607.2,496.7c-0.9,2.3-2.1,4.4-3.1,6.6c-3,6.1-5.8,12.2-9,18.2c-3.5,6.8-7.3,13.4-10.9,20.1
	c-5.2,9.4-10.4,18.7-16.7,27.3c-4.2,5.8-8.8,11.4-13.5,16.9c-7.1,8.2-14.3,16.2-21.6,24.1c-3,3.2-6.1,6.3-9.4,9.1
	c-8.8,7.6-17.1,15.6-26.8,22.2c-5.4,3.7-11.1,6.7-17,9.3c-5,2.2-10,4.5-15.2,6.5c-5.8,2.2-11.6,4.4-17.5,6.3
	c-2.8,0.9-5.9,0.7-8.5-0.7c-8.8-4.8-6.6-19.3-4.9-26.5c2.1-6.6,5.5-12.7,9.7-18.5c5.6-7.9,12-15,18.7-22c8.5-8.9,18-16.7,27.4-24.5
	c3.9-3.2,7.6-6.8,11.9-9.5c9-5.9,16.5-13.6,25.3-19.6c13.2-9,26.2-18.4,39.8-26.8c11.4-7.1,23.1-13.7,35.4-19.2
	c1.2-0.6,2.5-1.2,3.8-1.5C607.1,493.9,608,494.8,607.2,496.7z M523.9,73.1c-4.2,1.6-8.5,3.1-12.7,4.9c-2.3,1-4.4,2.5-6.6,3.8
	c-0.7,0.4-1.4,0.9-2.2,1.2c-2.1,0.8-3,0.2-2.9-3c0.6-1.8,1.4-4.5,2.6-7.1c1.5-3.4,3.5-6.5,6.6-8.8c2.6-1.9,5.4-2.7,8.3-1.1
	c2.8,1.6,5.6,3.4,8,5.5C527.3,70.5,526.8,72,523.9,73.1z M572.1,95.7c-6.1-3.9-12.4-7.4-17.7-12.4c-2.6-2.5-5-5.2-7.3-7.9
	c-3.7-4.6-7.2-9.4-11-14c-2.7-3.3-6-6-9.6-8.3c-3.3-2.1-3.3-3.9-0.2-6.4c6.8-5.3,14.5-9.1,22.7-11.8c4.7-1.5,9.5-2.9,14.3-4.1
	c3.8-0.9,7.7-1.4,11.6-0.5c1,0.2,2.1,0.4,3,0.9c5.8,3.3,11.2,7.3,15.8,12.2c4.7,5,7.1,11.2,9,17.7c3.1,10.8,5.9,21.6,8.8,32.5
	c0.6,2.4,0.9,5,1.2,7.2c-0.3,2.4-0.4,4.4-0.9,6.3c-0.7,3.1-2.4,3.7-5.2,2.3c-2.2-1.1-4.3-2.4-6.6-3.2c-4.4-1.5-8.9-2.9-13.3-4.1
	C581.7,100.7,576.7,98.6,572.1,95.7z M489.5,237.8c0.5-2.2,1.3-4.5,2.4-6.5c2.8-4.7,5.5-9.6,8.9-13.8c11.9-14.3,23.8-28.6,36.3-42.4
	c5.8-6.4,12.5-12.2,21.3-14.5c5.2-1.3,10.5-2.4,15.9-2.7c3.7-0.3,7.6,0.7,10.9,2.7c3.6,2.2,5.5,5.1,2.2,9.4
	c-6.3,8.3-11.5,17.3-16.4,26.4c-2.5,4.6-4.7,9.5-7.2,14.1c-3.8,7.1-7.8,14.1-11.6,21.1c-3.1,5.7-5.8,11.6-9.2,17
	c-3.2,5.1-7,9.8-10.6,14.6c-5.5,7.4-11.1,14.7-16.6,22c-1.2,1.6-2.4,3.2-3.8,4.6c-1.6,1.6-3.5,2.2-5.8,1.3c-5-1.9-9-4.8-10.7-10.1
	c-1.8-5.8-3.7-11.7-5-17.7c-1.2-5.4-1.6-11-2.2-15.8C488.7,243.8,488.8,240.7,489.5,237.8z M485.7,319.2c-0.9,1.5-1.6,3.3-2.8,4.6
	c-2.8,3.2-5.7,6.2-8.8,9.2c-5.4,5.2-10.9,10.3-17.3,14.4c-1.2,0.8-2.5,1.5-3.8,2.3c-2.1,1.2-4.1,1.1-5.8-0.5c-2-1.8-4.2-3.6-5.9-5.7
	c-6.8-8.6-13.3-17.6-17.5-27.9c-1.1-2.7-2-5.6-2.8-8.4c-0.8-3-0.2-4.5,2.6-6c6.7-3.7,13.9-6.2,21.3-8c1.2-0.3,2.5-0.5,3.7-0.8
	c4.5-1.1,8.6-0.3,12.4,2.2c4.8,3.1,9.5,6.4,14.1,9.7c4,2.9,6.6,7.1,9.1,11.3C484.9,316.5,485.1,317.7,485.7,319.2z M418,260
	c1.4-7.5,5.4-13.7,11.2-18.7c3.6-3.1,7.1-6.3,10.9-9.3c6.6-5.2,14.3-8.3,22.2-10.6c5.7-1.6,11.5-2.6,17.3-3.7c3.1-0.6,4.4,1,3.3,4
	c-0.9,2.6-2,5.1-3.1,7.6c-2.8,6.2-4.1,12.6-4,19.4c0,0.5-0.1,1.1,0,1.6c0.6,6.1-0.8,11.7-4.2,16.9c-1.8,2.7-3.1,5.8-4.8,8.6
	c-1.5,2.5-3.7,3.3-6.7,2.8c-6.8-1-13.5-0.1-20.1,1.8c-5.6,1.6-11.1,3.6-16.5,5.5c-3.9,1.3-5.5,0.5-6.2-3.6c-0.5-2.9-0.6-5.9-0.8-8.8
	C417,269,417.2,264.4,418,260z M367.5,349.6c2.8-5.1,6.4-9.7,10-14.3c4.9-6.2,10.3-11.8,16.3-16.8c3-2.5,6.3-4.6,9.7-6.6
	c3.4-2,5.3-1.2,6.5,2.5c5.2,15.8,14.5,29,25.6,41.2c0.6,0.6,1.1,1.3,1.6,2c1.2,1.8,1,3.6-0.6,5.1c-0.7,0.6-1.5,1.1-2.4,1.6
	c-7.2,4-14.5,7.9-22.1,11.1c-6.7,2.8-12.9,6.7-19.2,10.4c-9.7,5.6-19.2,11.5-28.9,17.2c-0.7,0.4-1.5,0.7-2.4,0.8
	c-1.8,0.2-2.5-0.3-3.1-2c-0.2-0.6-0.3-1.2-0.3-1.9c-0.2-3.5-0.4-7-0.6-10.2C358.2,375.6,360.7,362.1,367.5,349.6z M45.8,562.8
	c5-6.2,11-11.4,17-16.7c10.2-9.1,20.7-18.1,32-25.9c8.6-6,17.6-11.4,26.7-16.6c10-5.8,20.2-11.2,30.3-16.6
	c11.3-6.1,23.2-10.8,35-15.8c4.7-2,9.3-4.3,13.6-6.9c8.7-5.4,18.1-9.1,27.7-12.7c12.8-4.8,25.5-9.8,38.2-14.8
	c1.9-0.7,3.8-1.4,5.7-1.9c1-0.3,2-0.3,3-0.5c0.1,0.3,0.3,0.6,0.4,0.9c-1.2,1.1-2.3,2.3-3.7,3.3c-8.4,5.8-17,11.6-25.4,17.4
	c-9.3,6.4-18.6,13-28,19.3c-3.8,2.5-7.7,4.9-11.8,6.9c-13,6.3-26.2,12.5-39.3,18.6c-3.7,1.7-7.6,3.2-11.4,4.7
	c-9.8,4-19.8,7.5-29.3,12.2c-13.3,6.5-26.8,12.8-39,21.2c-4.1,2.8-8.6,5.1-12.7,7.7c-8.5,5.5-17,11.1-25.5,16.7
	c-1.6,1-3.2,1.9-5.3,3C44,564.4,45.1,563.7,45.8,562.8z M506.9,401.2c-1.7,2.4-3.6,4.7-5.6,6.9c-7.8,8.8-15.6,17.6-23.5,26.2
	c-3.7,4-7.9,7.6-11.8,11.6c-6.3,6.6-12.5,13.2-18.7,19.9c-4.6,5-9.8,9.4-15,13.7c-6.7,5.5-13.8,10.5-21.3,14.9
	c-3.9,2.3-7.7,4.9-11.4,7.5c-8,5.4-16.6,9.8-25.4,13.7c-2.4,1.1-4.9,2.1-7.2,3.3c-7.7,4.2-16.1,7-24.2,10.4
	c-1.1,0.5-2.1,0.9-3.2,1.5c-8.6,4.7-17.9,7.6-27.2,10.4c-12.2,3.7-24.6,7.2-37,10.3c-8.1,2-16.4,3.4-24.6,4.8
	c-13.9,2.5-27.9,5-41.8,7.4c-5.4,0.9-10.9,1.4-16.3,2.1c-7.6,1.1-15.3,2.2-22.9,3.4c-10.8,1.8-21.7,3.5-32.5,5.5
	c-15.6,2.9-31.1,6.2-46.7,9.2c-11.6,2.3-23.3,4.4-34.9,6.7c-7,1.4-14,3.2-21,4.7c-1,0.2-2.2,0-3.3,0c-0.2-0.3-0.3-0.6-0.5-0.9
	c0.8-1.1,1.4-2.3,2.4-3.2c4.1-3.5,8.2-7,12.6-10.2c14.8-10.8,30.2-20.7,45.8-30.3c22-13.6,45.2-24.9,69.5-34
	c14-5.2,27.4-11.8,40.8-18.5c11.5-5.8,23.3-11.1,34.9-16.9c9.3-4.7,18.2-10,27.4-14.7c12.5-6.4,25.2-12.5,37.9-18.7
	c6.1-3,12.2-5.8,18.4-8.6c6.4-2.8,13-5.2,19.2-8.3c8.8-4.3,17.4-9.1,26.1-13.7c14.6-7.6,28.1-17,42.3-25.2c6-3.4,12.4-6,18.6-9
	c6.3-3.1,12.6-6.1,18.2-10.3c0.7-0.5,1.4-0.9,2.1-1.4c2.3-1.5,4.6-1.5,6.8,0c2.4,1.6,4.6,3.4,7.1,4.8c10.6,6.4,21.8,11.7,33.6,15.8
	c3.6,1.2,7.2,2.6,10.7,4C508,397.4,508.5,398.7,506.9,401.2z M644.5,144.3c0,6.2-1,12.1-3.3,17.9c-2.9,7.5-4.8,15.3-7.4,22.9
	c-1.6,4.6-3.5,9.1-5.5,13.5c-3.5,7.6-7.2,15.1-10.9,22.6c-4.6,9.5-8.9,19.2-14.5,28.2c-4.4,7.1-8.6,14.4-13.1,21.4
	c-3.5,5.4-7.6,10.4-11.1,15.9c-6.3,9.9-12.6,19.8-18.5,30c-3.9,6.8-7.1,14-10.7,20.9c-2.8,5.4-5.7,10.6-8.4,16
	c-5.2,10.6-12,20.1-19.5,29.3c-2.2,2.7-4.8,3.8-8.1,2.7c-6.5-2.1-13.1-4.3-19.5-6.7c-8.6-3.3-17-7.1-24.8-12.1
	c-1.3-0.9-2.7-1.7-3.9-2.7c-2.8-2.4-2.7-3.9,0.1-6.1c2.2-1.8,4.6-3.4,6.8-5.2c6.7-5.4,13.2-10.9,18.7-17.5c3.3-3.9,7.2-7.2,10.5-11
	c7.4-8.4,14.9-16.8,21.9-25.5c6.3-7.8,12-16.1,18.1-24.1c3.8-5.1,7.9-10,11.4-15.2c3.1-4.6,5.7-9.6,8.4-14.6
	c4.4-8.1,8.8-16.2,13.1-24.3c3.4-6.5,6.6-13,10.2-19.4c9.1-16.2,19.3-31.6,30.7-46.3c4.7-6.1,10.6-10.9,16.6-15.5
	c2.1-1.7,4.6-2.6,7.3-2.7c3.3-0.1,4.9,1.3,5.1,4.6C644.5,142.2,644.5,143.2,644.5,144.3z M657.6,60.3c-1,6.3-2.1,12.6-5.2,18.2
	c-1.6,2.9-3.4,5.9-5.8,8.3c-4.8,4.7-8.8,10-12.3,15.7c-1.4,2.3-3,4.6-4.5,6.9c-0.3,0.4-0.6,0.9-0.9,1.3c-0.8,1.1-1.7,2.1-3.1,1.6
	c-1.7-0.5-1.5-2.1-1.4-3.5c0.1-1.7,0.4-3.3,0.6-5c0.6-6.4-0.2-12.6-2-18.7c-3-10.4-5.9-20.7-8.9-31.1c-1.9-6.4-5.5-11.9-9.5-17.1
	c-1.1-1.4-2.1-2.8-3.2-4.2c0.1-0.3,0.2-0.6,0.3-0.9c1.3-0.2,2.6-0.8,3.9-0.6c6,0.9,12.1,1.9,18.1,3c2,0.4,3.9,1.1,5.8,1.5
	c9.1,2.1,16.7,7.1,23.9,12.7C657.2,51.5,658.4,55.6,657.6,60.3z M845.1,311.4c-15-1.5-29.6-5.2-43.8-10
	c-15.2-5.1-30.4-10.5-44.8-17.8c-12.2-6.1-23.5-13.5-33.1-23.3c-6.1-6.2-12.1-12.4-17-19.6c-4.3-6.2-8.8-12.2-13-18.4
	c-10.4-15.3-17.8-31.9-22.1-49.9c-1.8-7.6-3.6-15.2-5.5-22.8c-0.8-3-1.9-5.8-2.8-8.8c-0.3-0.8-0.6-1.6-0.8-2.4
	c-0.4-2.2,0.5-3.1,2.6-2.3c4.7,1.8,9.1,4,13,7.3c2.7,2.2,5.3,4.5,8,6.8c7,6,13.4,12.6,19.3,19.7c5.3,6.5,10.7,12.8,15.8,19.4
	c5.4,6.9,10.4,14.2,15.7,21.2c3.7,4.9,7.6,9.6,11.6,14.3c4.4,5.1,9,10.2,13.5,15.2c2.7,3,5.5,5.8,8.4,8.6c8.7,8.6,16.8,18,26.8,25.3
	c7.8,5.7,16,10.8,24.1,15.9c10.2,6.4,20.7,12.5,31,18.7c1,0.6,1.8,1.5,3.1,2.7C851.1,312.1,848.1,311.7,845.1,311.4z M858,294.6
	c-1.7-0.6-3.4-1.2-4.9-2.1c-13.7-8.2-27.4-16.4-41-24.9c-6-3.7-11.5-8.2-16.6-13.3c-6.7-6.7-13.5-13.2-20.1-19.9
	c-9.3-9.4-18.2-19.2-26.6-29.4c-4-4.9-7.7-10.1-11.4-15.2c-7.5-10.4-16.4-19.6-24.7-29.4c-4.9-5.8-10.1-11.4-16.1-16.2
	c-1.4-1.1-2.5-2.7-3.8-4.1c0.2-0.3,0.4-0.6,0.5-0.9c1.3,0.3,2.7,0.4,3.9,0.8c4.8,1.8,9.8,3.5,14.5,5.7c10.3,4.7,20.6,9.5,30.2,15.5
	c11,6.8,21.7,14.1,31.4,22.6c8.7,7.6,17.4,15.1,25.8,23c6.1,5.7,11.4,12.2,16.1,19.2c5.1,7.7,10.2,15.3,15.4,22.9
	c8.5,12.5,17,25.1,25.5,37.6c1.2,1.7,2.2,3.6,3.2,5.5c0.4,0.7,0.4,1.5,0.7,2.6C859.1,294.6,858.5,294.7,858,294.6z M723.6,294.6
	c-4.7-4.6-9.3-6-14.9-3.4c-7.8,3.6-13.1,9.4-15.2,18c-1.9,7.8,2.7,13.8,10.5,15c2.9,0.5,5.9,0.6,8.8,0.9c3.4,0.4,6.4-0.6,9.2-2.6
	C730.7,316.1,730.1,301,723.6,294.6z"/>
</svg>
